<svg width="46" height="46" viewBox="0 0 46 46" fill="none" xmlns="http://www.w3.org/2000/svg">
<path d="M16.5763 16.4594L5.81304 34.9133C5.24703 36.2699 6.50484 37.6805 7.92437 37.2672L10.5119 36.5125C11.3025 36.2789 12.147 36.6293 12.5423 37.357L13.8271 39.7289C14.5279 41.0227 16.4146 40.9238 16.9806 39.5672L23.9255 18.5707C24.2939 17.6812 23.8716 16.657 22.9822 16.2797L18.8763 15.525C17.9689 15.1477 16.9447 15.5699 16.5763 16.4594Z" fill="#FFA1E0"/>
<path d="M29.5229 16.4594L40.2862 34.9133C40.8522 36.2699 39.5944 37.6805 38.1748 37.2672L35.5873 36.5125C34.7967 36.2789 33.9522 36.6293 33.5569 37.357L32.2721 39.7289C31.5713 41.0227 29.6846 40.9238 29.1186 39.5672L22.1737 18.5707C21.8053 17.6812 22.2276 16.657 23.117 16.2797L27.2229 15.525C28.1303 15.1477 29.1545 15.5699 29.5229 16.4594Z" fill="#FFA1E0"/>
<path d="M6.80121 6.39743C6.80121 6.39743 7.05277 6.25368 7.46605 6.16383C7.87933 6.06501 8.45433 6.03805 9.11019 6.16383C9.76605 6.2986 10.5207 6.59509 11.2934 7.09821C11.6797 7.35876 12.075 7.63727 12.4793 7.91579C12.8746 8.22126 13.2879 8.49079 13.6922 8.83219C14.0965 9.15563 14.5008 9.47907 14.8961 9.80251C15.2914 10.117 15.6688 10.4943 16.0461 10.8267C16.4235 11.1591 16.7739 11.4916 17.1153 11.842C17.4477 12.1924 17.7711 12.4798 18.0586 12.8213C18.6426 13.4502 19.1188 14.0252 19.4512 14.4384C19.7746 14.8787 19.9633 15.1302 19.9633 15.1302C21.6614 17.4033 21.1942 20.6197 18.9301 22.3177C18.8942 22.3447 18.8403 22.3896 18.7953 22.4166C18.7953 22.4166 18.5438 22.5963 18.0946 22.9107C17.6543 23.1982 17.0164 23.5935 16.2707 24.0068C15.8934 24.2314 15.4981 24.4111 15.0668 24.6357C14.6356 24.8603 14.1953 25.0759 13.7371 25.2736C13.2789 25.4713 12.8028 25.7138 12.3266 25.8845C11.8504 26.0642 11.3653 26.2529 10.8801 26.4326C10.395 26.6302 9.91878 26.756 9.44261 26.9177C8.97542 27.0525 8.50824 27.1873 8.068 27.322C7.17855 27.5556 6.37894 27.6095 5.70511 27.5287C5.04027 27.4388 4.50121 27.2322 4.14183 27.0076C3.78246 26.792 3.5848 26.5763 3.5848 26.5763C-1.29372 21.2666 -0.95231 13.0459 4.33949 8.17633C5.08519 7.49352 5.94769 6.8736 6.80121 6.39743ZM42.5231 26.5584C42.5231 26.5584 42.3254 26.765 41.9661 26.9896C41.6067 27.2142 41.0676 27.4209 40.4028 27.5107C39.7379 27.5916 38.9293 27.5377 38.0399 27.3041C37.5907 27.1693 37.1325 27.0345 36.6653 26.8998C36.1891 26.7381 35.7129 26.6033 35.2278 26.4146C34.7426 26.2349 34.2575 26.0463 33.7813 25.8666C33.3051 25.6959 32.8289 25.4533 32.3707 25.2556C31.9125 25.058 31.4723 24.8513 31.041 24.6177C30.6188 24.3931 30.2145 24.2134 29.8371 23.9888C29.0914 23.5756 28.4535 23.1802 28.0133 22.8927C27.5641 22.5783 27.3125 22.3986 27.3125 22.3986C24.9946 20.7724 24.4285 17.574 26.0547 15.247C26.0817 15.2111 26.1176 15.1572 26.1536 15.1123C26.1536 15.1123 26.3422 14.8607 26.6657 14.4205C26.9981 14.0072 27.4743 13.4322 28.0582 12.8033C28.3457 12.4709 28.6692 12.1744 29.0016 11.824C29.334 11.4736 29.6934 11.1412 30.0707 10.8088C30.4481 10.4763 30.8254 10.099 31.2207 9.78454C31.616 9.4611 32.0203 9.13766 32.4246 8.81423C32.8289 8.47282 33.2332 8.20329 33.6375 7.89782C34.0418 7.6193 34.4371 7.34977 34.8235 7.08024C35.5961 6.57712 36.3418 6.28063 37.0067 6.14587C37.6715 6.02009 38.2375 6.05602 38.6508 6.14587C39.0641 6.23571 39.3157 6.37946 39.3157 6.37946C45.5868 9.88337 47.8328 17.8076 44.3289 24.0787C43.8168 24.9771 43.1789 25.8306 42.5231 26.5584Z" fill="#FF3ED2"/>
<path d="M23.0447 25.7848C26.4883 25.7848 29.2799 22.9932 29.2799 19.5496C29.2799 16.106 26.4883 13.3145 23.0447 13.3145C19.6011 13.3145 16.8096 16.106 16.8096 19.5496C16.8096 22.9932 19.6011 25.7848 23.0447 25.7848Z" fill="#FF5FD2"/>
<path d="M19.4334 19.046C19.2717 19.046 19.1189 19.0191 18.9662 18.9562C18.3373 18.6956 18.0318 17.9679 18.2924 17.339C18.6877 16.3777 19.3705 15.596 20.2599 15.0659C20.8529 14.7156 21.6076 14.9132 21.949 15.5062C22.2994 16.0902 22.1017 16.8538 21.5088 17.1952C21.0775 17.4468 20.7541 17.8242 20.5654 18.2824C20.3767 18.7585 19.9185 19.046 19.4334 19.046Z" fill="#FFA1E0"/>
</svg>
